<svg width="24" height="24" viewBox="0 0 24 24" fill="none" xmlns="http://www.w3.org/2000/svg">
<mask id="mask0_11397_2382" style="mask-type:alpha" maskUnits="userSpaceOnUse" x="0" y="0" width="24" height="24">
<circle cx="12" cy="12" r="12" fill="white"/>
</mask>
<g mask="url(#mask0_11397_2382)">
<path d="M12.0045 -2.93457C5.85662 -2.93457 4.0586 -2.92806 3.7091 -2.8983C2.44746 -2.79064 1.66238 -2.58672 0.807089 -2.14958C0.147953 -1.81358 -0.371882 -1.42411 -0.884921 -0.878148C-1.81926 0.11751 -2.38553 1.34243 -2.59052 2.79849C-2.69019 3.50535 -2.71918 3.64952 -2.72507 7.26011C-2.72733 8.46364 -2.72507 10.0476 -2.72507 12.1721C-2.72507 18.4781 -2.71827 20.322 -2.68883 20.6801C-2.5869 21.9404 -2.39437 22.7333 -1.98665 23.6006C-1.20747 25.2608 0.280686 26.5071 2.03385 26.9721C2.64089 27.1326 3.31136 27.2209 4.17208 27.2628C4.53676 27.2791 8.25375 27.2907 11.973 27.2907C15.6922 27.2907 19.4115 27.286 19.7671 27.2674C20.7638 27.2193 21.3425 27.1396 21.9824 26.9698C23.7469 26.5024 25.2078 25.2747 26.0029 23.5913C26.4027 22.7449 26.6054 21.9218 26.6971 20.7273C26.717 20.4669 26.7254 16.3147 26.7254 12.1682C26.7254 8.02092 26.7164 3.87646 26.6964 3.61603C26.6036 2.40227 26.4008 1.58612 25.9881 0.723461C25.6495 0.017293 25.2735 -0.510067 24.7276 -1.04928C23.7534 -2.00448 22.562 -2.58579 21.1422 -2.79599C20.4543 -2.89806 20.3173 -2.92829 16.7974 -2.93457H12.0045Z" fill="url(#paint0_radial_11397_2382)"/>
<path d="M12.0045 -2.93457C5.85662 -2.93457 4.0586 -2.92806 3.7091 -2.8983C2.44746 -2.79064 1.66238 -2.58672 0.807089 -2.14958C0.147953 -1.81358 -0.371882 -1.42411 -0.884921 -0.878148C-1.81926 0.11751 -2.38553 1.34243 -2.59052 2.79849C-2.69019 3.50535 -2.71918 3.64951 -2.72507 7.26011C-2.72733 8.46364 -2.72507 10.0476 -2.72507 12.1721C-2.72507 18.4781 -2.71827 20.322 -2.68883 20.6801C-2.5869 21.9404 -2.39437 22.7333 -1.98665 23.6006C-1.20747 25.2608 0.280686 26.5071 2.03385 26.9721C2.64089 27.1326 3.31136 27.2209 4.17208 27.2628C4.53676 27.2791 8.25375 27.2907 11.973 27.2907C15.6922 27.2907 19.4115 27.286 19.7671 27.2674C20.7638 27.2193 21.3425 27.1396 21.9824 26.9698C23.7469 26.5024 25.2078 25.2747 26.0029 23.5913C26.4027 22.7449 26.6054 21.9218 26.6971 20.7273C26.717 20.4669 26.7254 16.3147 26.7254 12.1682C26.7254 8.02092 26.7164 3.87646 26.6964 3.61603C26.6036 2.40227 26.4008 1.58612 25.9881 0.723461C25.6495 0.017293 25.2735 -0.510067 24.7276 -1.04928C23.7534 -2.00448 22.562 -2.58579 21.1422 -2.79599C20.4543 -2.89806 20.3173 -2.92829 16.7974 -2.93457H12.0045Z" fill="url(#paint1_radial_11397_2382)"/>
</g>
<path d="M12.0013 5.91992C10.3923 5.91992 10.1903 5.92714 9.55837 5.95666C8.92765 5.9863 8.49712 6.08877 8.12042 6.23913C7.73075 6.39443 7.4002 6.60217 7.07089 6.94026C6.74134 7.27822 6.53891 7.61744 6.38709 8.01722C6.24021 8.40395 6.14023 8.8459 6.11184 9.49294C6.08358 10.1415 6.07617 10.3489 6.07617 12.0001C6.07617 13.6514 6.08333 13.858 6.11197 14.5066C6.14097 15.1539 6.24083 15.5957 6.38722 15.9823C6.53866 16.3822 6.74109 16.7214 7.07052 17.0594C7.39971 17.3976 7.73025 17.6059 8.11968 17.7612C8.49663 17.9115 8.92728 18.014 9.55788 18.0436C10.1898 18.0731 10.3916 18.0804 12.0006 18.0804C13.6097 18.0804 13.811 18.0731 14.443 18.0436C15.0737 18.014 15.5047 17.9115 15.8817 17.7612C16.2712 17.6059 16.6013 17.3976 16.9305 17.0594C17.26 16.7214 17.4624 16.3822 17.6143 15.9824C17.7599 15.5957 17.8599 15.1538 17.8895 14.5067C17.9179 13.8582 17.9253 13.6514 17.9253 12.0001C17.9253 10.3489 17.9179 10.1416 17.8895 9.49307C17.8599 8.84578 17.7599 8.40395 17.6143 8.01735C17.4624 7.61744 17.26 7.27822 16.9305 6.94026C16.6009 6.60205 16.2714 6.39431 15.8813 6.23913C15.5036 6.08877 15.0728 5.9863 14.4421 5.95666C13.8102 5.92714 13.609 5.91992 11.9994 5.91992H12.0013ZM11.4698 7.01563C11.6276 7.01538 11.8036 7.01563 12.0013 7.01563C13.5832 7.01563 13.7707 7.02146 14.3953 7.05059C14.973 7.0777 15.2865 7.17675 15.4953 7.25998C15.7718 7.37018 15.9689 7.50192 16.1762 7.71473C16.3835 7.92754 16.5119 8.13021 16.6195 8.41395C16.7006 8.62803 16.7973 8.94977 16.8236 9.54259C16.852 10.1836 16.8581 10.3761 16.8581 11.9988C16.8581 13.6214 16.852 13.814 16.8236 14.4549C16.7972 15.0477 16.7006 15.3695 16.6195 15.5836C16.5122 15.8673 16.3835 16.0693 16.1762 16.282C15.9688 16.4948 15.772 16.6266 15.4953 16.7368C15.2868 16.8204 14.973 16.9192 14.3953 16.9463C13.7708 16.9754 13.5832 16.9817 12.0013 16.9817C10.4193 16.9817 10.2318 16.9754 9.60725 16.9463C9.0296 16.9189 8.71609 16.8199 8.50712 16.7366C8.23064 16.6264 8.03315 16.4947 7.82579 16.2819C7.61843 16.0691 7.49006 15.8669 7.38243 15.583C7.30134 15.369 7.20469 15.0472 7.1784 14.4544C7.15001 13.8134 7.14433 13.6209 7.14433 11.9972C7.14433 10.3736 7.15001 10.182 7.1784 9.54107C7.20481 8.94825 7.30134 8.62651 7.38243 8.41218C7.48981 8.12844 7.61843 7.92576 7.82579 7.71295C8.03315 7.50015 8.23064 7.36841 8.50712 7.25795C8.71597 7.17435 9.0296 7.07554 9.60725 7.04831C10.1538 7.02298 10.3656 7.01538 11.4698 7.01411V7.01563ZM15.1638 8.0252C14.7713 8.0252 14.4529 8.35163 14.4529 8.75457C14.4529 9.15739 14.7713 9.4842 15.1638 9.4842C15.5563 9.4842 15.8748 9.15739 15.8748 8.75457C15.8748 8.35176 15.5563 8.02495 15.1638 8.02495V8.0252ZM12.0013 8.8777C10.321 8.8777 8.95875 10.2758 8.95875 12.0001C8.95875 13.7245 10.321 15.122 12.0013 15.122C13.6815 15.122 15.0433 13.7245 15.0433 12.0001C15.0433 10.2758 13.6815 8.8777 12.0013 8.8777ZM12.0013 9.9734C13.0919 9.9734 13.9762 10.8808 13.9762 12.0001C13.9762 13.1194 13.0919 14.0269 12.0013 14.0269C10.9105 14.0269 10.0264 13.1194 10.0264 12.0001C10.0264 10.8808 10.9105 9.9734 12.0013 9.9734Z" fill="white"/>
<defs>
<radialGradient id="paint0_radial_11397_2382" cx="0" cy="0" r="1" gradientUnits="userSpaceOnUse" gradientTransform="translate(5.09702 29.6187) rotate(-90) scale(29.9555 27.1477)">
<stop stop-color="#FFDD55"/>
<stop offset="0.1" stop-color="#FFDD55"/>
<stop offset="0.5" stop-color="#FF543E"/>
<stop offset="1" stop-color="#C837AB"/>
</radialGradient>
<radialGradient id="paint1_radial_11397_2382" cx="0" cy="0" r="1" gradientTransform="matrix(2.56092 13.1298 -52.7348 10.8394 -7.65936 -0.757193)" gradientUnits="userSpaceOnUse">
<stop stop-color="#3771C8"/>
<stop offset="0.128" stop-color="#3771C8"/>
<stop offset="1" stop-color="#6600FF" stop-opacity="0"/>
</radialGradient>
</defs>
</svg>
