<svg width="288" height="191" viewBox="0 0 288 191" fill="none" xmlns="http://www.w3.org/2000/svg">
<g clip-path="url(#clip0_1785_785)">
<path d="M31.0758 126.003C31.0758 137.007 33.4704 145.388 36.6632 150.519C40.0841 156.392 46.3558 159.984 53.0835 159.984C53.1405 159.984 53.1405 159.984 53.1975 159.984C61.2936 159.984 68.7056 157.988 82.9593 138.204C94.4193 122.354 107.875 100.232 116.94 86.2064L132.277 62.6023C142.939 46.239 155.254 27.9943 169.451 15.6221C181.025 5.58745 193.454 0 205.997 0C227.093 0 247.105 12.2012 262.499 35.1211C279.318 60.2077 287.471 91.7939 287.471 124.406C287.471 143.791 283.651 158.045 277.152 169.277C270.88 180.167 258.622 191 238.04 191V159.984C255.657 159.984 260.047 143.791 260.047 125.262C260.047 98.8637 253.89 69.5011 240.32 48.5766C230.685 33.6958 218.198 24.6304 204.458 24.6304C189.634 24.6304 177.661 35.8053 164.205 55.8175C157.079 66.4223 149.724 79.3646 141.514 93.9604L132.448 109.982C114.26 142.252 109.642 149.607 100.52 161.751C84.6127 183.075 70.9862 191.057 53.0835 191.057C31.817 191.057 18.3615 181.82 10.0943 167.966C3.25255 156.677 -0.111328 141.796 -0.111328 124.919L30.9618 126.06L31.0758 126.003Z" fill="#0081FB"/>
<path d="M24.4629 37.2877C38.7166 15.337 59.2419 0 82.7891 0C96.4156 0 109.985 3.99104 124.182 15.6221C139.69 28.2794 156.167 49.0898 176.807 83.4127L184.218 95.7279C202.064 125.433 212.213 140.713 218.142 147.953C225.782 157.19 231.142 159.927 238.097 159.927C255.715 159.927 260.105 143.734 260.105 125.205L287.529 124.349C287.529 143.734 283.709 157.988 277.21 169.22C270.995 180.11 258.737 191 238.154 191C225.383 191 214.037 188.206 201.494 176.404C191.858 167.339 180.569 151.203 171.903 136.722L146.133 93.6183C133.19 72.0097 121.331 55.8745 114.432 48.6336C107.02 40.7656 97.5559 31.2441 82.39 31.2441C70.1318 31.2441 59.6981 39.8534 50.9748 53.0238L24.5199 37.2877H24.4629Z" fill="url(#paint0_linear_1785_785)"/>
<path d="M82.3314 31.2442C70.0732 31.2442 59.6395 39.8535 50.9162 53.0239C38.601 71.6107 31.018 99.377 31.018 126.003C31.018 137.007 33.4126 145.388 36.6055 150.519L10.1506 167.909C3.36583 156.62 0.00195312 141.739 0.00195312 124.863C0.00195312 94.1316 8.44015 62.0893 24.4613 37.3448C38.715 15.3941 59.2404 0.0571289 82.7875 0.0571289L82.2744 31.3013L82.3314 31.2442Z" fill="url(#paint1_linear_1785_785)"/>
</g>
<defs>
<linearGradient id="paint0_linear_1785_785" x1="61.9786" y1="-102" x2="259.991" y2="-91.9649" gradientUnits="userSpaceOnUse">
<stop stop-color="#0064E1"/>
<stop offset="0.4" stop-color="#0064E1"/>
<stop offset="0.831373" stop-color="#0073EE"/>
<stop offset="1" stop-color="#0082FB"/>
</linearGradient>
<linearGradient id="paint1_linear_1785_785" x1="40.9956" y1="-53.9929" x2="40.9956" y2="-126.972" gradientUnits="userSpaceOnUse">
<stop stop-color="#0082FB"/>
<stop offset="1" stop-color="#0064E0"/>
</linearGradient>
<clipPath id="clip0_1785_785">
<rect width="287.59" height="191" fill="white"/>
</clipPath>
</defs>
</svg>
