<svg width="24" height="24" viewBox="0 0 24 24" fill="none" xmlns="http://www.w3.org/2000/svg">
<circle cx="12" cy="12" r="12" fill="#FFFC00"/>
<path d="M12.0734 17.9282C12.0406 17.9282 12.0093 17.9269 11.9856 17.9256C11.9667 17.9274 11.9472 17.9282 11.9276 17.9282C11.2386 17.9282 10.778 17.5727 10.3714 17.2587C10.0801 17.0341 9.80525 16.822 9.48331 16.7635C9.3252 16.7349 9.16791 16.7204 9.01594 16.7204C8.74212 16.7204 8.52572 16.7667 8.36773 16.8004C8.27051 16.8211 8.18668 16.8389 8.12188 16.8389C8.05402 16.8389 7.97157 16.8225 7.93721 16.6944C7.90997 16.5934 7.89044 16.4955 7.87159 16.4013C7.82442 16.1658 7.79021 16.022 7.70942 16.0084C6.84528 15.8628 6.3347 15.6484 6.233 15.3888C6.22234 15.3615 6.21638 15.3341 6.21506 15.3069C6.2111 15.2295 6.26116 15.1617 6.33105 15.149C7.0173 15.0257 7.62749 14.6298 8.14476 13.9719C8.54547 13.4626 8.74224 12.976 8.76337 12.9223C8.76429 12.9199 8.76536 12.9173 8.76647 12.915C8.86618 12.6942 8.88601 12.5034 8.82561 12.348C8.71427 12.0614 8.3455 11.9337 8.10153 11.8492C8.04085 11.8283 7.98346 11.8084 7.93773 11.7886C7.72146 11.6954 7.36577 11.4983 7.41315 11.2264C7.44767 11.0281 7.68795 10.89 7.88215 10.89C7.93607 10.89 7.98385 10.9004 8.02408 10.921C8.24352 11.0332 8.44094 11.0901 8.61072 11.0901C8.82187 11.0901 8.92385 11.0023 8.9485 10.9774C8.94242 10.8544 8.93499 10.7245 8.92781 10.6015C8.92781 10.6014 8.92765 10.5999 8.92765 10.5999C8.87809 9.73934 8.81628 8.66838 9.06725 8.05423C9.81842 6.21589 11.4114 6.07294 11.8816 6.07294C11.8942 6.07294 12.0866 6.07086 12.0866 6.07086C12.0953 6.07069 12.1047 6.07056 12.1145 6.07056C12.5859 6.07056 14.1823 6.21368 14.9339 8.05313C15.1849 8.66767 15.123 9.73954 15.0733 10.601L15.071 10.6422C15.0641 10.7592 15.0579 10.8699 15.0525 10.9772C15.0758 11.0006 15.1691 11.081 15.3589 11.0892C15.5208 11.0824 15.7068 11.0258 15.9116 10.9211C15.9749 10.8887 16.045 10.8819 16.0926 10.8819C16.1646 10.8819 16.2378 10.8972 16.2988 10.925L16.3021 10.9264C16.4759 10.9937 16.5897 11.1283 16.5922 11.2697C16.5943 11.4014 16.5046 11.5984 16.0633 11.7887C16.0181 11.8082 15.9604 11.8282 15.8995 11.8493C15.6553 11.9339 15.2868 12.0615 15.1755 12.348C15.115 12.5033 15.1349 12.6941 15.2346 12.9148C15.2357 12.9172 15.2367 12.9197 15.2378 12.9222C15.2685 13.0008 16.0118 14.8506 17.6701 15.1489C17.7399 15.1616 17.7901 15.2295 17.7861 15.3068C17.7846 15.3345 17.7785 15.3623 17.7677 15.3894C17.6667 15.6476 17.1562 15.8616 16.2918 16.0074C16.2107 16.0211 16.1765 16.1642 16.1298 16.3985C16.1104 16.4952 16.0907 16.5901 16.0639 16.6898C16.0387 16.7835 15.9828 16.8293 15.8929 16.8293H15.8794C15.8209 16.8293 15.738 16.8177 15.6335 16.7954C15.4508 16.7566 15.2458 16.7205 14.9853 16.7205C14.8333 16.7205 14.6761 16.735 14.5178 16.7636C14.1962 16.8221 13.9214 17.0338 13.6305 17.2583C13.2232 17.5726 12.7624 17.9282 12.0734 17.9282Z" fill="white"/>
<path d="M12.1147 6.22212C12.5586 6.22212 14.0871 6.35227 14.8074 8.11493C15.0445 8.69536 14.9837 9.74678 14.935 10.5914C14.9274 10.7254 14.9198 10.8553 14.9137 10.9794L14.9111 11.0327L14.9437 11.0724C14.9569 11.0884 15.0802 11.229 15.3544 11.2406L15.3588 11.2409L15.3634 11.2408C15.5447 11.2332 15.7489 11.1717 15.9707 11.0584C16.0034 11.0417 16.0468 11.0335 16.0928 11.0335C16.1453 11.0335 16.201 11.0443 16.2469 11.0654L16.2538 11.0684C16.3701 11.1129 16.4523 11.1968 16.4536 11.2726C16.4543 11.3155 16.4249 11.4701 16.0127 11.6478C15.9724 11.6652 15.9193 11.6837 15.8579 11.7048C15.5896 11.7978 15.1843 11.9381 15.0479 12.2889C14.9711 12.4865 14.9922 12.7198 15.1104 12.982C15.159 13.1059 15.9248 14.9885 17.6478 15.2984C17.6475 15.3074 17.6454 15.3171 17.6408 15.3286C17.6116 15.4037 17.4259 15.6631 16.2708 15.8576C16.0901 15.8879 16.0458 16.109 15.9945 16.3661C15.9759 16.4581 15.9571 16.551 15.9311 16.647C15.9232 16.676 15.9217 16.6776 15.8933 16.6776C15.8893 16.6776 15.8847 16.6776 15.8797 16.6776C15.8285 16.6776 15.7507 16.666 15.6606 16.6467C15.4965 16.6118 15.2722 16.569 14.9856 16.569C14.8256 16.569 14.6608 16.5842 14.4954 16.6143C14.142 16.6785 13.8545 16.9004 13.5501 17.1353C13.1412 17.4506 12.7187 17.7769 12.0739 17.7769C12.0458 17.7769 12.0183 17.7759 11.9907 17.7744L11.9835 17.7741L11.9762 17.7747C11.9604 17.7762 11.9445 17.7769 11.9282 17.7769C11.2835 17.7769 10.8608 17.4507 10.4521 17.1353C10.1476 16.9004 9.86003 16.6785 9.50661 16.6143C9.3414 16.5843 9.17644 16.569 9.01655 16.569C8.72995 16.569 8.50545 16.6169 8.34166 16.6519C8.25153 16.6711 8.1735 16.6876 8.12243 16.6876C8.08061 16.6876 8.07981 16.6849 8.07097 16.6519C8.04505 16.5559 8.0261 16.4608 8.00765 16.3689C7.95618 16.1115 7.91187 15.8892 7.73122 15.8589C6.57621 15.6642 6.39055 15.4044 6.36126 15.3295C6.35668 15.3177 6.35463 15.3076 6.35416 15.2987C8.07717 14.9891 8.84274 13.1064 8.89154 12.982C9.00998 12.72 9.03098 12.4868 8.95394 12.2889C8.81753 11.9383 8.41231 11.7978 8.14424 11.705C8.08261 11.6837 8.02954 11.6652 7.98922 11.6478C7.64112 11.4977 7.53404 11.3465 7.54995 11.2548C7.56841 11.1492 7.73625 11.0417 7.88273 11.0417C7.91565 11.0417 7.94451 11.0475 7.96586 11.0584C8.20375 11.1801 8.42091 11.2418 8.61139 11.2418C8.91082 11.2418 9.04409 11.0897 9.0584 11.0724L9.09086 11.0327L9.08825 10.9797C9.0822 10.8557 9.07474 10.7258 9.06688 10.5921C9.01827 9.74724 8.95747 8.69653 9.19456 8.11607C9.9122 6.35988 11.4332 6.2245 11.8822 6.2245C11.8933 6.2245 12.0885 6.22232 12.0885 6.22232C12.0965 6.22226 12.1054 6.22212 12.1147 6.22212ZM12.1147 5.91919H12.1142C12.1039 5.91919 12.0943 5.91919 12.0852 5.91932C12.0122 5.92013 11.8923 5.9214 11.8815 5.92154C11.6184 5.92154 11.0921 5.96209 10.5268 6.23446C10.2036 6.39008 9.91284 6.6005 9.6627 6.8599C9.36447 7.16896 9.12151 7.55003 8.9407 7.99266C8.67591 8.64076 8.73877 9.7324 8.78925 10.6097L8.78943 10.611C8.79484 10.705 8.80052 10.8031 8.80571 10.8987C8.76686 10.9182 8.70388 10.9387 8.61105 10.9387C8.46169 10.9387 8.28408 10.8866 8.08328 10.7839C8.0242 10.7538 7.95677 10.7387 7.88236 10.7387C7.76282 10.7387 7.63679 10.7771 7.52747 10.8472C7.38993 10.9354 7.30107 11.06 7.27693 11.1981C7.26102 11.2895 7.26179 11.4701 7.44558 11.6532C7.54667 11.754 7.69517 11.847 7.88684 11.9297C7.93714 11.9513 7.99684 11.9719 8.06007 11.9938C8.27947 12.07 8.61154 12.185 8.69814 12.4074C8.74202 12.5202 8.72314 12.6686 8.64216 12.848C8.64004 12.8529 8.63792 12.8577 8.63599 12.8627C8.61575 12.9143 8.42696 13.3811 8.03971 13.8733C7.81966 14.1533 7.57728 14.3872 7.31971 14.5689C7.00532 14.7907 6.66514 14.9357 6.30872 14.9998C6.16875 15.0248 6.0688 15.161 6.0766 15.3156C6.07899 15.3602 6.08857 15.4047 6.10519 15.4477C6.10531 15.4479 6.10546 15.4482 6.10559 15.4484C6.16218 15.5929 6.29339 15.7157 6.50672 15.8239C6.7674 15.9561 7.15726 16.0673 7.66538 16.1543C7.69105 16.2075 7.71771 16.3415 7.73616 16.4332C7.75548 16.5307 7.77562 16.6309 7.80433 16.7373C7.83532 16.8527 7.91568 16.9905 8.12213 16.9905C8.20037 16.9905 8.29034 16.9712 8.39453 16.9492C8.54712 16.9165 8.75578 16.8719 9.01621 16.8719C9.1606 16.8719 9.31024 16.8858 9.46086 16.9131C9.7512 16.9659 10.0015 17.1589 10.2911 17.3824C10.715 17.7094 11.1948 18.0796 11.9279 18.0796C11.9479 18.0796 11.9679 18.0789 11.9877 18.0774C12.012 18.0787 12.042 18.0796 12.0737 18.0796C12.807 18.0796 13.2867 17.7093 13.7101 17.3825L13.7108 17.3818C14.0004 17.1586 14.2505 16.9659 14.5407 16.9131C14.6913 16.8858 14.8409 16.8719 14.9853 16.8719C15.2341 16.8719 15.4311 16.9066 15.607 16.944C15.7218 16.9687 15.811 16.9805 15.8794 16.9805L15.8861 16.9807H15.8931C16.0441 16.9807 16.155 16.8902 16.1973 16.7319C16.2255 16.6277 16.2456 16.5298 16.2654 16.4307C16.2826 16.3448 16.3102 16.207 16.3359 16.1531C16.8443 16.066 17.234 15.9551 17.4947 15.8229C17.7076 15.7152 17.8386 15.5926 17.8956 15.4487C17.9126 15.4055 17.9226 15.3608 17.9249 15.3153C17.9329 15.1609 17.8328 15.0245 17.6927 14.9994C16.1087 14.7145 15.395 12.9379 15.3655 12.8624C15.3636 12.8575 15.3615 12.8525 15.3592 12.8477C15.2783 12.6683 15.2596 12.52 15.3035 12.407C15.3899 12.1848 15.7217 12.0698 15.9413 11.9937C16.0049 11.9718 16.0648 11.9511 16.1147 11.9295C16.3308 11.8364 16.4853 11.7353 16.5872 11.6205C16.709 11.4836 16.7327 11.3525 16.7312 11.2667C16.7275 11.0591 16.5821 10.8746 16.3508 10.7843C16.2727 10.749 16.1836 10.7304 16.0929 10.7304C16.0311 10.7304 15.9397 10.7397 15.8531 10.7838C15.6678 10.8784 15.5018 10.9302 15.3593 10.9376C15.2835 10.9334 15.2303 10.9154 15.1959 10.8983C15.2002 10.8173 15.205 10.7341 15.21 10.6474L15.212 10.6103C15.2628 9.73243 15.3259 8.63995 15.0609 7.99139C14.8794 7.54718 14.6356 7.16514 14.3361 6.85541C14.085 6.59584 13.7933 6.38545 13.4689 6.22993C12.9044 5.95958 12.3781 5.91919 12.1147 5.91919Z" fill="#020202"/>
</svg>
