<svg width="372" height="366" viewBox="0 0 372 366" fill="none" xmlns="http://www.w3.org/2000/svg">
<g clip-path="url(#clip0_1785_791)">
<path d="M365.281 273.705C363.726 268.523 356.192 264.855 356.192 264.855C355.474 264.496 354.836 264.138 354.318 263.899C341.801 257.839 330.679 250.544 321.311 242.252C313.777 235.595 307.359 228.26 302.176 220.487C295.838 210.999 292.888 203.066 291.612 198.761C290.895 195.971 291.014 194.815 291.612 193.379C292.091 192.144 293.566 190.988 294.243 190.43C298.469 187.44 305.286 183.015 309.471 180.344C313.099 177.992 316.208 175.959 318.042 174.683C323.902 170.577 327.968 166.392 330.32 161.847C333.39 156.027 333.748 149.569 331.357 143.231C328.128 134.7 320.155 129.597 310.029 129.597C307.797 129.597 305.445 129.876 303.133 130.355C297.313 131.63 291.812 133.703 287.227 135.497C287.387 135.417 287.467 135.258 287.467 135.099C287.467 134.82 287.267 134.62 286.988 134.62C286.709 134.62 286.51 134.82 286.51 135.099C286.51 135.258 286.59 135.417 286.749 135.497C287.227 124.096 287.785 108.749 286.51 94.1983C285.394 81.0432 282.643 69.9212 278.258 60.2343C273.793 50.5075 268.013 43.332 263.469 38.1099C259.163 33.1668 251.549 25.8717 240.108 19.334C224.003 10.1255 205.666 5.46143 185.615 5.46143C165.603 5.46143 147.305 10.1255 131.161 19.334C119.042 26.2703 111.308 34.0836 107.761 38.1099C103.216 43.2922 97.4358 50.5075 92.971 60.2343C88.5063 69.9212 85.8354 81.0033 84.7192 94.1983C83.4436 108.828 83.9618 122.94 84.48 135.497C84.48 135.856 84.1611 136.135 83.7625 135.976C79.1782 134.182 73.6769 132.109 67.8568 130.833C65.5846 130.355 63.2725 130.076 60.9604 130.076C50.8748 130.076 42.9021 135.178 39.6332 143.709C37.2414 150.047 37.6002 156.466 40.6697 162.326C43.0615 166.87 47.0878 171.056 52.9478 175.162C54.7416 176.437 57.8909 178.47 61.5185 180.822C65.5846 183.493 72.202 187.799 76.5073 190.748C77.0255 191.107 78.8194 192.463 79.3775 193.898C79.9754 195.412 80.095 196.529 79.2977 199.518C77.9822 203.864 75.0323 211.717 68.8136 221.045C63.6313 228.858 57.2132 236.153 49.6789 242.811C40.3109 251.062 29.1889 258.397 16.6717 264.457C16.0737 264.776 15.3562 265.094 14.5988 265.533C14.5988 265.533 7.10438 269.36 5.70914 274.303C3.59636 281.598 9.17729 288.455 14.838 292.122C24.1262 298.102 35.4077 301.331 41.9852 303.085C43.8189 303.563 45.4534 304.001 46.9682 304.48C47.8851 304.799 50.2769 305.676 51.2735 306.991C52.5491 308.626 52.7086 310.659 53.1471 312.931C53.8646 316.798 55.4592 321.542 60.203 324.85C65.4251 328.438 72.0824 328.717 80.4937 329.036C89.3036 329.355 100.226 329.793 112.743 333.939C118.564 335.853 123.826 339.122 129.885 342.829C142.601 350.642 158.427 360.369 185.455 360.369C212.523 360.369 228.468 350.602 241.264 342.749C247.324 339.042 252.546 335.813 258.207 333.939C270.724 329.793 281.686 329.355 290.456 329.036C298.868 328.717 305.485 328.478 310.747 324.85C315.85 321.342 317.285 316.08 317.962 312.174C318.321 310.22 318.56 308.466 319.677 307.031C320.633 305.795 322.826 304.918 323.822 304.599C325.337 304.121 327.091 303.683 329.005 303.125C335.542 301.371 343.794 299.298 353.76 293.637C365.799 286.78 366.636 278.409 365.36 274.263L365.161 273.785L365.281 273.705Z" fill="#FFFA01" stroke="#373435" stroke-width="10.6835" stroke-miterlimit="2.61313"/>
</g>
<defs>
<clipPath id="clip0_1785_791">
<rect width="371.229" height="365.591" fill="white"/>
</clipPath>
</defs>
</svg>
