<svg width="23" height="23" viewBox="0 0 23 23" fill="none" xmlns="http://www.w3.org/2000/svg">
<path d="M11.518 0H11.4657C5.13335 0 0 5.13335 0 11.4657V11.518C0 17.8503 5.13335 22.9837 11.4657 22.9837H11.518C17.8503 22.9837 22.9837 17.8503 22.9837 11.518V11.4657C22.9837 5.13335 17.8503 0 11.518 0Z" fill="black"/>
<path d="M17.3186 9.12795V11.298C16.9393 11.261 16.4465 11.1748 15.9014 10.9751C15.1896 10.7142 14.6597 10.3575 14.3127 10.0813V14.4674L14.3038 14.4537C14.3095 14.5407 14.3127 14.6293 14.3127 14.7187C14.3127 16.8968 12.5404 18.6699 10.3614 18.6699C8.18247 18.6699 6.41016 16.8968 6.41016 14.7187C6.41016 12.5405 8.18247 10.7666 10.3614 10.7666C10.5748 10.7666 10.7842 10.7835 10.9887 10.8165V12.9552C10.7922 12.8851 10.5812 12.8473 10.3614 12.8473C9.32992 12.8473 8.49007 13.6863 8.49007 14.7187C8.49007 15.751 9.32992 16.59 10.3614 16.59C11.3929 16.59 12.2328 15.7502 12.2328 14.7187C12.2328 14.68 12.232 14.6414 12.2296 14.6027V6.07935H14.398C14.4061 6.26294 14.4133 6.44814 14.4214 6.63173C14.4359 6.99328 14.5647 7.34034 14.7894 7.62458C15.0527 7.95875 15.4416 8.34687 15.9876 8.65689C16.4989 8.94677 16.9788 9.07077 17.3186 9.12956V9.12795Z" fill="#FF004F"/>
<path d="M16.573 7.36613V9.53622C16.1937 9.49918 15.7009 9.41302 15.1558 9.21333C14.444 8.95243 13.9141 8.59571 13.5671 8.31952V12.7056L13.5582 12.6919C13.5639 12.7789 13.5671 12.8675 13.5671 12.9568C13.5671 15.135 11.7948 16.9081 9.61581 16.9081C7.43686 16.9081 5.66455 15.135 5.66455 12.9568C5.66455 10.7787 7.43686 9.00477 9.61581 9.00477C9.8292 9.00477 10.0386 9.02168 10.2431 9.0547V11.1934C10.0466 11.1233 9.83564 11.0855 9.61581 11.0855C8.58431 11.0855 7.74446 11.9245 7.74446 12.9568C7.74446 13.9891 8.58431 14.8282 9.61581 14.8282C10.6473 14.8282 11.4872 13.9883 11.4872 12.9568C11.4872 12.9182 11.4864 12.8795 11.4839 12.8409V4.31592H13.6524C13.6605 4.49951 13.6677 4.68471 13.6758 4.86831C13.6903 5.22985 13.8191 5.57691 14.0438 5.86115C14.3071 6.19532 14.696 6.58345 15.242 6.89346C15.7533 7.18254 16.2332 7.30735 16.573 7.36613Z" fill="#00F7EF"/>
<path d="M17.0476 8.31471V10.4848C16.6683 10.4478 16.1755 10.3616 15.6304 10.1619C14.9186 9.90102 14.3887 9.5443 14.0417 9.26811V13.6542L14.0328 13.6405C14.0385 13.7275 14.0417 13.816 14.0417 13.9054C14.0417 16.0836 12.2694 17.8567 10.0904 17.8567C7.91147 17.8567 6.13916 16.0836 6.13916 13.9054C6.13916 11.7273 7.91147 9.95336 10.0904 9.95336C10.3038 9.95336 10.5132 9.97027 10.7177 10.0033V12.142C10.5212 12.0719 10.3102 12.0341 10.0904 12.0341C9.05892 12.0341 8.21907 12.8731 8.21907 13.9054C8.21907 14.9377 9.05892 15.7768 10.0904 15.7768C11.1219 15.7768 11.9618 14.9369 11.9618 13.9054C11.9618 13.8668 11.961 13.8281 11.9586 13.7895V5.26611H14.127C14.1351 5.44971 14.1423 5.63491 14.1504 5.8185C14.1649 6.18005 14.2937 6.5271 14.5184 6.81135C14.7817 7.14552 15.1706 7.53364 15.7166 7.84365C16.2279 8.13273 16.7078 8.25754 17.0476 8.31632V8.31471Z" fill="white"/>
</svg>
