<svg width="1411" height="2092" viewBox="0 0 1411 2092" fill="none" xmlns="http://www.w3.org/2000/svg">
<path fill-rule="evenodd" clip-rule="evenodd" d="M705.409 0.689453C1001.36 0.689453 1243.49 244.265 1243.49 542V1126.48C1243.49 1164.34 1239.56 1201.32 1232.12 1237.05H1025.08C1037.04 1202.34 1043.55 1165.13 1043.55 1126.48V542C1043.55 354.898 891.4 201.838 705.415 201.838C519.43 201.838 367.267 354.898 367.267 542H167.319C167.319 244.265 409.451 0.689453 705.409 0.689453Z" fill="#B7B7B7"/>
<path fill-rule="evenodd" clip-rule="evenodd" d="M149.425 940.905H1261.39C1343.59 940.905 1410.84 1008.56 1410.84 1091.24V1941.66C1410.84 2024.35 1343.59 2092 1261.39 2092H149.425C67.2353 2092 0 2024.35 0 1941.66V1091.24C0 1008.57 67.2408 940.905 149.425 940.905ZM796.54 1507.18V1698.34C796.54 1748.77 755.539 1790.01 705.42 1790.01H705.409C655.291 1790.01 614.278 1748.77 614.278 1698.34V1507.2C580.16 1480.08 558.241 1438.09 558.241 1390.95C558.241 1309.2 624.135 1242.91 705.415 1242.91C786.679 1242.91 852.573 1309.2 852.573 1390.95C852.573 1438.09 830.665 1480.07 796.546 1507.18H796.54Z" fill="#FFA042"/>
<path fill-rule="evenodd" clip-rule="evenodd" d="M558.241 1390.95C558.241 1438.09 580.16 1480.08 614.278 1507.2V1698.34C614.278 1748.77 655.291 1790.01 705.409 1790.01H705.42C755.539 1790.01 796.54 1748.77 796.54 1698.34V1507.18C830.659 1480.07 852.567 1438.09 852.567 1390.95C852.567 1309.2 786.673 1242.91 705.409 1242.91C624.129 1242.91 558.235 1309.2 558.235 1390.95H558.241Z" fill="#472809"/>
</svg>
